<svg width="32" height="32" viewBox="0 0 32 32" fill="none" xmlns="http://www.w3.org/2000/svg">
<path d="M14.26 11.916V13.752H12.916V15.996H14.26V22.6667H17.0227V15.996H18.876C18.876 15.996 19.0507 14.92 19.1347 13.7427H17.0333V12.2093C17.0333 11.9787 17.3347 11.6707 17.6333 11.6707H19.1373V9.33334H17.0907C14.192 9.33334 14.26 11.58 14.26 11.916Z" fill="#D24A6A"/>
<path d="M16.0001 26.6667C18.8291 26.6667 21.5422 25.5429 23.5426 23.5425C25.5429 21.5421 26.6667 18.829 26.6667 16C26.6667 13.171 25.5429 10.4579 23.5426 8.45752C21.5422 6.45713 18.8291 5.33332 16.0001 5.33332C13.1711 5.33332 10.458 6.45713 8.45761 8.45752C6.45722 10.4579 5.33341 13.171 5.33341 16C5.33341 18.829 6.45722 21.5421 8.45761 23.5425C10.458 25.5429 13.1711 26.6667 16.0001 26.6667ZM16.0001 29.3333C8.63608 29.3333 2.66675 23.364 2.66675 16C2.66675 8.63599 8.63608 2.66666 16.0001 2.66666C23.3641 2.66666 29.3334 8.63599 29.3334 16C29.3334 23.364 23.3641 29.3333 16.0001 29.3333Z" fill="#D24A6A"/>
</svg>
