<svg width="32" height="32" viewBox="0 0 32 32" fill="none" xmlns="http://www.w3.org/2000/svg">
<path fill-rule="evenodd" clip-rule="evenodd" d="M10.8364 3.08C12.2582 3.01455 12.7115 3 16.3333 3C19.9551 3 20.4085 3.01576 21.8291 3.08C23.2497 3.14424 24.2194 3.37091 25.0679 3.69939C25.9563 4.03515 26.7624 4.56 27.4291 5.23879C28.1079 5.90424 28.6315 6.70909 28.966 7.59878C29.2957 8.44727 29.5212 9.41696 29.5866 10.8351C29.6521 12.2594 29.6666 12.7127 29.6666 16.3333C29.6666 19.9551 29.6509 20.4085 29.5866 21.8303C29.5224 23.2485 29.2957 24.2182 28.966 25.0666C28.6315 25.9565 28.107 26.7626 27.4291 27.4291C26.7624 28.1079 25.9563 28.6315 25.0679 28.966C24.2194 29.2957 23.2497 29.5212 21.8315 29.5866C20.4085 29.6521 19.9551 29.6666 16.3333 29.6666C12.7115 29.6666 12.2582 29.6509 10.8364 29.5866C9.41818 29.5224 8.44848 29.2957 7.6 28.966C6.7102 28.6314 5.90402 28.107 5.23757 27.4291C4.55925 26.7632 4.03432 25.9574 3.69939 25.0679C3.37091 24.2194 3.14545 23.2497 3.08 21.8315C3.01455 20.4073 3 19.9539 3 16.3333C3 12.7115 3.01576 12.2582 3.08 10.8376C3.14424 9.41696 3.37091 8.44727 3.69939 7.59878C4.03481 6.70919 4.56014 5.90341 5.23879 5.23757C5.90429 4.55939 6.70966 4.03448 7.59878 3.69939C8.44727 3.37091 9.41696 3.14545 10.8351 3.08H10.8364ZM21.7212 5.48C20.3151 5.41576 19.8933 5.40242 16.3333 5.40242C12.7733 5.40242 12.3515 5.41576 10.9454 5.48C9.64484 5.53939 8.93939 5.75636 8.46909 5.93939C7.84727 6.18182 7.40242 6.46909 6.93575 6.93575C6.49339 7.36612 6.15294 7.89004 5.93939 8.46909C5.75636 8.93939 5.53939 9.64484 5.48 10.9454C5.41576 12.3515 5.40242 12.7733 5.40242 16.3333C5.40242 19.8933 5.41576 20.3151 5.48 21.7212C5.53939 23.0218 5.75636 23.7273 5.93939 24.1976C6.15272 24.7757 6.49333 25.3006 6.93575 25.7309C7.36606 26.1733 7.8909 26.5139 8.46909 26.7273C8.93939 26.9103 9.64484 27.1273 10.9454 27.1866C12.3515 27.2509 12.7721 27.2642 16.3333 27.2642C19.8945 27.2642 20.3151 27.2509 21.7212 27.1866C23.0218 27.1273 23.7273 26.9103 24.1976 26.7273C24.8194 26.4848 25.2642 26.1976 25.7309 25.7309C26.1733 25.3006 26.5139 24.7757 26.7273 24.1976C26.9103 23.7273 27.1273 23.0218 27.1866 21.7212C27.2509 20.3151 27.2642 19.8933 27.2642 16.3333C27.2642 12.7733 27.2509 12.3515 27.1866 10.9454C27.1273 9.64484 26.9103 8.93939 26.7273 8.46909C26.4848 7.84727 26.1976 7.40242 25.7309 6.93575C25.3005 6.49342 24.7766 6.15298 24.1976 5.93939C23.7273 5.75636 23.0218 5.53939 21.7212 5.48ZM14.6303 20.4436C15.5814 20.8395 16.6404 20.893 17.6266 20.5948C18.6127 20.2966 19.4647 19.6653 20.0371 18.8088C20.6095 17.9522 20.8667 16.9235 20.7649 15.8983C20.6631 14.8731 20.2085 13.9151 19.4788 13.1879C19.0136 12.723 18.4512 12.367 17.8319 12.1456C17.2127 11.9242 16.552 11.8429 15.8976 11.9074C15.2431 11.972 14.6111 12.1808 14.047 12.5189C13.483 12.8571 13.0009 13.316 12.6355 13.8628C12.2701 14.4096 12.0305 15.0306 11.934 15.6812C11.8374 16.3317 11.8862 16.9955 12.077 17.6249C12.2678 18.2542 12.5957 18.8335 13.0372 19.3209C13.4787 19.8083 14.0228 20.1917 14.6303 20.4436ZM11.4873 11.4873C12.1237 10.8509 12.8792 10.3461 13.7107 10.0016C14.5421 9.65723 15.4333 9.47996 16.3333 9.47996C17.2333 9.47996 18.1245 9.65723 18.956 10.0016C19.7875 10.3461 20.543 10.8509 21.1794 11.4873C21.8158 12.1237 22.3206 12.8792 22.665 13.7107C23.0094 14.5421 23.1867 15.4333 23.1867 16.3333C23.1867 17.2333 23.0094 18.1245 22.665 18.956C22.3206 19.7875 21.8158 20.543 21.1794 21.1794C19.8941 22.4646 18.1509 23.1867 16.3333 23.1867C14.5157 23.1867 12.7725 22.4646 11.4873 21.1794C10.202 19.8941 9.47996 18.1509 9.47996 16.3333C9.47996 14.5157 10.202 12.7725 11.4873 11.4873ZM24.7066 10.5006C24.8644 10.3518 24.9906 10.1729 25.0779 9.97451C25.1652 9.77608 25.2119 9.56214 25.215 9.34536C25.2182 9.12859 25.1778 8.91339 25.0963 8.71249C25.0148 8.5116 24.8938 8.3291 24.7405 8.1758C24.5872 8.0225 24.4047 7.90152 24.2038 7.82002C24.003 7.73851 23.7878 7.69815 23.571 7.70131C23.3542 7.70447 23.1403 7.75109 22.9418 7.83842C22.7434 7.92574 22.5645 8.05199 22.4157 8.20969C22.1264 8.51639 21.968 8.92378 21.9742 9.34536C21.9803 9.76695 22.1505 10.1695 22.4487 10.4677C22.7468 10.7658 23.1494 10.936 23.571 10.9422C23.9926 10.9483 24.3999 10.7899 24.7066 10.5006Z" fill="#D24A6A"/>
</svg>
