<svg width="295" height="273" viewBox="0 0 295 273" fill="none" xmlns="http://www.w3.org/2000/svg">
<path d="M148.677 98.6844L154.907 124.241L180.144 119.383L159.484 136.056L189.264 156.996L230.589 197.205L197.109 150.741L180.144 119.383L158.444 73.4063L147.039 0L136.466 73.7711L115.692 119.383L94.6294 152.442L59.7897 200.039L104.089 159.294L137.506 136.421L115.692 119.383L141.768 124.459L148.677 98.6844Z" fill="black"/>
<path d="M146.242 174.314L140.837 148.571L117.394 153.714L136.643 136.614L109.253 113.87L67.5397 73.2111L99.5088 120.727L117.394 153.714L135.668 199.265L144.707 273L157.646 199.607L179.876 154.687L201.99 122.322L238.342 75.8692L191.511 113.87L175.123 124.796L158.621 136.956L179.876 154.687L153.976 148.775L146.242 174.314Z" fill="black"/>
</svg>
