<svg width="28" height="20" viewBox="0 0 28 20" fill="none" xmlns="http://www.w3.org/2000/svg">
<path fill-rule="evenodd" clip-rule="evenodd" d="M25.997 0.666626C26.7334 0.666626 27.3303 1.26358 27.3303 1.99996C27.3303 2.73634 26.7334 3.33329 25.997 3.33329H1.99999C1.26361 3.33329 0.666656 2.73634 0.666656 1.99996C0.666656 1.26358 1.26361 0.666626 1.99999 0.666626H25.997ZM25.997 5.99996C26.7334 5.99996 27.3303 6.59691 27.3303 7.33329C27.3303 8.06967 26.7334 8.66663 25.997 8.66663H1.99999C1.26361 8.66663 0.666656 8.06967 0.666656 7.33329C0.666656 6.59691 1.26361 5.99996 1.99999 5.99996H25.997ZM27.3303 12.6666C27.3303 11.9302 26.7334 11.3333 25.997 11.3333H1.99999C1.26361 11.3333 0.666656 11.9302 0.666656 12.6666C0.666656 13.403 1.26361 14 1.99999 14H25.997C26.7334 14 27.3303 13.403 27.3303 12.6666ZM25.997 16.6666C26.7334 16.6666 27.3303 17.2636 27.3303 18C27.3303 18.7363 26.7334 19.3333 25.997 19.3333H10.9989C10.2625 19.3333 9.66553 18.7363 9.66553 18C9.66553 17.2636 10.2625 16.6666 10.9989 16.6666H25.997Z" fill="#CDCCD9"/>
</svg>
