<svg width="23" height="23" viewBox="0 0 23 23" fill="none" xmlns="http://www.w3.org/2000/svg">
<path d="M21.9406 7.69949L14.1054 5.59998V15.5786C14.1054 16.3603 13.4659 16.994 12.6771 16.994H7.08009L6.59875 18.7396C6.56534 18.8603 6.58168 18.9892 6.64419 19.098C6.70669 19.2067 6.81023 19.2864 6.93202 19.3195L17.9628 22.2748C18.0033 22.2854 18.0451 22.2908 18.087 22.2909C18.3022 22.291 18.4908 22.1481 18.5469 21.9422L22.2743 8.27839C22.3074 8.15751 22.2905 8.02858 22.2276 7.91999C22.1646 7.8114 22.0607 7.73208 21.9387 7.69949H21.9406Z" fill="#5454D4"/>
<rect x="0.690918" y="0.690918" width="11.7818" height="14.7273" rx="1" fill="#5454D4"/>
</svg>
