<svg width="32" height="32" viewBox="0 0 32 32" fill="none" xmlns="http://www.w3.org/2000/svg">
<path d="M22 3.31668C22.4947 3.31668 22.9667 3.49692 23.3129 3.81422C23.6586 4.13112 23.85 4.55798 23.85 5.00001V27C23.85 27.442 23.6586 27.8689 23.3129 28.1858C22.9667 28.5031 22.4947 28.6833 22 28.6833H10C9.50534 28.6833 9.03329 28.5031 8.68715 28.1858C8.34144 27.8689 8.15 27.442 8.15 27V5.00001C8.15 4.55798 8.34144 4.13112 8.68715 3.81422C9.03329 3.49692 9.50534 3.31668 10 3.31668H22ZM10 1.18334C8.90336 1.18334 7.84929 1.58256 7.07021 2.29671C6.2907 3.01127 5.85 3.98335 5.85 5.00001V27C5.85 28.0167 6.2907 28.9888 7.07021 29.7033C7.84929 30.4175 8.90336 30.8167 10 30.8167H22C23.0966 30.8167 24.1507 30.4175 24.9298 29.7033C25.7093 28.9888 26.15 28.0167 26.15 27V5.00001C26.15 3.98335 25.7093 3.01127 24.9298 2.29671C24.1507 1.58256 23.0966 1.18334 22 1.18334H10Z" fill="#D24A6A" stroke="#D24A6A" stroke-width="0.3"/>
<path d="M16 27.15C16.5662 27.15 17.1116 26.944 17.5156 26.5736C17.92 26.2029 18.15 25.6971 18.15 25.1667C18.15 24.6363 17.92 24.1305 17.5156 23.7598C17.1116 23.3894 16.5662 23.1834 16 23.1834C15.4338 23.1834 14.8884 23.3894 14.4844 23.7598C14.08 24.1305 13.85 24.6363 13.85 25.1667C13.85 25.6971 14.08 26.2029 14.4844 26.5736C14.8884 26.944 15.4338 27.15 16 27.15Z" fill="#D24A6A" stroke="#D24A6A" stroke-width="0.3"/>
</svg>
