<svg width="27" height="25" viewBox="0 0 27 25" fill="none" xmlns="http://www.w3.org/2000/svg">
<g id="chat-content">
<path id="Shape" fill-rule="evenodd" clip-rule="evenodd" d="M23.4799 0.690918H3.502C1.96957 0.690918 0.727295 1.94683 0.727295 3.49608V15.8388C0.727295 16.5828 1.01963 17.2963 1.53999 17.8223C2.06034 18.3484 2.7661 18.644 3.502 18.644H8.78503L13.0581 24.0439C13.1634 24.177 13.3229 24.2546 13.4915 24.2546C13.6601 24.2546 13.8196 24.177 13.9249 24.0439L18.1968 18.644H23.4799C25.0123 18.644 26.2546 17.3881 26.2546 15.8388V3.49608C26.2546 1.94683 25.0123 0.690918 23.4799 0.690918ZM14.6609 12.4727H7.21544C6.92172 12.4727 6.68362 12.2843 6.68362 12.0519C6.68362 11.8196 6.92172 11.6312 7.21544 11.6312H14.6609C14.9546 11.6312 15.1927 11.8196 15.1927 12.0519C15.1927 12.2843 14.9546 12.4727 14.6609 12.4727ZM7.23998 7.42341H20.5927C20.9 7.42341 21.1491 7.23502 21.1491 7.00263C21.1491 6.77024 20.9 6.58185 20.5927 6.58185H7.23998C6.93271 6.58185 6.68362 6.77024 6.68362 7.00263C6.68362 7.23502 6.93271 7.42341 7.23998 7.42341Z" fill="#77BF41"/>
</g>
</svg>
