<svg width="17" height="23" viewBox="0 0 17 23" fill="none" xmlns="http://www.w3.org/2000/svg">
<path fill-rule="evenodd" clip-rule="evenodd" d="M3.0909 0.690918H13.8909C15.2458 0.69247 16.3438 1.74272 16.3454 3.03874V19.9431C16.3438 21.2391 15.2458 22.2894 13.8909 22.2909H3.0909C1.73596 22.2894 0.637976 21.2391 0.636353 19.9431V3.03874C0.637976 1.74272 1.73596 0.69247 3.0909 0.690918ZM14.8727 19.0039C15.1438 19.0039 15.3636 18.7937 15.3636 18.5344V3.50829C15.3636 3.24896 15.1438 3.03873 14.8727 3.03873H2.10907C1.83795 3.03873 1.61816 3.24896 1.61816 3.50829V18.5344C1.61816 18.7937 1.83795 19.0039 2.10907 19.0039H14.8727Z" fill="#FEDC5A"/>
</svg>
